<mxfile host="app.diagrams.net" agent="Mozilla/5.0 (Windows NT 10.0; Win64; x64) AppleWebKit/537.36 (KHTML, like Gecko) Chrome/137.0.0.0 Safari/537.36" version="27.1.5">
  <diagram name="Страница — 1" id="JFmTq_pjET4pBvj-eXF3">
    <mxGraphModel dx="1188" dy="626" grid="1" gridSize="10" guides="1" tooltips="1" connect="1" arrows="1" fold="1" page="1" pageScale="1" pageWidth="827" pageHeight="1169" math="0" shadow="0">
      <root>
        <mxCell id="0" />
        <mxCell id="1" parent="0" />
        <mxCell id="0mGcMl_5vktNwuxS22v_-2" value="&lt;font style=&quot;font-size: 14px;&quot;&gt;Command Memory Unit&lt;/font&gt;" style="rounded=0;whiteSpace=wrap;html=1;rotation=90;textDirection=ltr;" parent="1" vertex="1">
          <mxGeometry x="86.5" y="360" width="227" height="60" as="geometry" />
        </mxCell>
        <mxCell id="0mGcMl_5vktNwuxS22v_-36" value="PC" style="rounded=0;whiteSpace=wrap;html=1;rotation=0;" parent="1" vertex="1">
          <mxGeometry x="300" y="278" width="150" height="30" as="geometry" />
        </mxCell>
        <mxCell id="0mGcMl_5vktNwuxS22v_-37" value="CR" style="rounded=0;whiteSpace=wrap;html=1;rotation=0;" parent="1" vertex="1">
          <mxGeometry x="300" y="476" width="150" height="30" as="geometry" />
        </mxCell>
        <mxCell id="0mGcMl_5vktNwuxS22v_-38" value="Instruction Decoder" style="rounded=0;whiteSpace=wrap;html=1;rotation=0;" parent="1" vertex="1">
          <mxGeometry x="300" y="338.5" width="150" height="103" as="geometry" />
        </mxCell>
        <mxCell id="0mGcMl_5vktNwuxS22v_-39" style="edgeStyle=orthogonalEdgeStyle;rounded=0;orthogonalLoop=1;jettySize=auto;html=1;" parent="1" edge="1">
          <mxGeometry relative="1" as="geometry">
            <mxPoint x="300" y="293" as="sourcePoint" />
            <mxPoint x="230" y="293" as="targetPoint" />
          </mxGeometry>
        </mxCell>
        <mxCell id="0mGcMl_5vktNwuxS22v_-40" value="&lt;font style=&quot;font-size: 10px;&quot;&gt;b_pc&lt;/font&gt;" style="text;html=1;align=center;verticalAlign=middle;resizable=0;points=[];autosize=1;strokeColor=none;fillColor=none;rotation=0;" parent="1" vertex="1">
          <mxGeometry x="223" y="211" width="50" height="30" as="geometry" />
        </mxCell>
        <mxCell id="0mGcMl_5vktNwuxS22v_-41" value="" style="endArrow=classic;html=1;rounded=0;fillColor=#dae8fc;strokeColor=#6c8ebf;" parent="1" edge="1">
          <mxGeometry width="50" height="50" relative="1" as="geometry">
            <mxPoint x="330" y="338.5" as="sourcePoint" />
            <mxPoint x="330" y="308" as="targetPoint" />
          </mxGeometry>
        </mxCell>
        <mxCell id="0mGcMl_5vktNwuxS22v_-42" value="&lt;font style=&quot;font-size: 10px;&quot;&gt;l_pc&lt;/font&gt;" style="text;html=1;align=center;verticalAlign=middle;resizable=0;points=[];autosize=1;strokeColor=none;fillColor=none;rotation=-90;flipH=1;" parent="1" vertex="1">
          <mxGeometry x="300" y="310.5" width="40" height="30" as="geometry" />
        </mxCell>
        <mxCell id="0mGcMl_5vktNwuxS22v_-43" value="" style="endArrow=classic;html=1;rounded=0;fillColor=#dae8fc;strokeColor=#6c8ebf;entryX=0.25;entryY=0;entryDx=0;entryDy=0;" parent="1" edge="1">
          <mxGeometry width="50" height="50" relative="1" as="geometry">
            <mxPoint x="300" y="431.75" as="sourcePoint" />
            <mxPoint x="230" y="431.0000000000002" as="targetPoint" />
          </mxGeometry>
        </mxCell>
        <mxCell id="0mGcMl_5vktNwuxS22v_-44" value="&lt;font style=&quot;font-size: 10px;&quot;&gt;l_cdata&lt;/font&gt;" style="text;html=1;align=center;verticalAlign=middle;resizable=0;points=[];autosize=1;strokeColor=none;fillColor=none;rotation=0;flipH=1;" parent="1" vertex="1">
          <mxGeometry x="238" y="408" width="60" height="30" as="geometry" />
        </mxCell>
        <mxCell id="0mGcMl_5vktNwuxS22v_-45" style="edgeStyle=orthogonalEdgeStyle;rounded=0;orthogonalLoop=1;jettySize=auto;html=1;entryX=0.063;entryY=-0.025;entryDx=0;entryDy=0;entryPerimeter=0;" parent="1" edge="1">
          <mxGeometry relative="1" as="geometry">
            <mxPoint x="230" y="492.35" as="sourcePoint" />
            <mxPoint x="300" y="492.65100000000007" as="targetPoint" />
          </mxGeometry>
        </mxCell>
        <mxCell id="0mGcMl_5vktNwuxS22v_-46" value="&lt;font style=&quot;font-size: 10px;&quot;&gt;b_cdata&lt;/font&gt;" style="text;html=1;align=center;verticalAlign=middle;resizable=0;points=[];autosize=1;strokeColor=none;fillColor=none;" parent="1" vertex="1">
          <mxGeometry x="232" y="469" width="60" height="30" as="geometry" />
        </mxCell>
        <mxCell id="0mGcMl_5vktNwuxS22v_-48" value="" style="endArrow=classic;html=1;rounded=0;" parent="1" edge="1">
          <mxGeometry width="50" height="50" relative="1" as="geometry">
            <mxPoint x="414" y="476" as="sourcePoint" />
            <mxPoint x="414" y="442" as="targetPoint" />
          </mxGeometry>
        </mxCell>
        <mxCell id="0mGcMl_5vktNwuxS22v_-49" value="&lt;font style=&quot;font-size: 10px;&quot;&gt;b_cmd&lt;/font&gt;" style="text;html=1;align=center;verticalAlign=middle;resizable=0;points=[];autosize=1;strokeColor=none;fillColor=none;rotation=0;" parent="1" vertex="1">
          <mxGeometry x="429" y="438" width="50" height="30" as="geometry" />
        </mxCell>
        <mxCell id="0mGcMl_5vktNwuxS22v_-50" value="" style="endArrow=none;html=1;rounded=0;startArrow=none;startFill=0;entryX=1.064;entryY=0.769;entryDx=0;entryDy=0;entryPerimeter=0;" parent="1" target="0mGcMl_5vktNwuxS22v_-49" edge="1">
          <mxGeometry width="50" height="50" relative="1" as="geometry">
            <mxPoint x="414" y="475.75" as="sourcePoint" />
            <mxPoint x="514" y="461.25" as="targetPoint" />
            <Array as="points">
              <mxPoint x="414" y="460.5" />
              <mxPoint x="434" y="460.75" />
            </Array>
          </mxGeometry>
        </mxCell>
        <mxCell id="0mGcMl_5vktNwuxS22v_-63" value="" style="endArrow=none;html=1;rounded=0;" parent="1" edge="1">
          <mxGeometry width="50" height="50" relative="1" as="geometry">
            <mxPoint x="301.5" y="261.25" as="sourcePoint" />
            <mxPoint x="301.5" y="211.25" as="targetPoint" />
          </mxGeometry>
        </mxCell>
        <mxCell id="0mGcMl_5vktNwuxS22v_-64" value="" style="endArrow=none;html=1;rounded=0;startFill=0;" parent="1" edge="1">
          <mxGeometry width="50" height="50" relative="1" as="geometry">
            <mxPoint x="301.5" y="212" as="sourcePoint" />
            <mxPoint x="342.5" y="212" as="targetPoint" />
          </mxGeometry>
        </mxCell>
        <mxCell id="0mGcMl_5vktNwuxS22v_-65" value="" style="endArrow=none;html=1;rounded=0;startFill=0;" parent="1" edge="1">
          <mxGeometry width="50" height="50" relative="1" as="geometry">
            <mxPoint x="301.5" y="236" as="sourcePoint" />
            <mxPoint x="342.5" y="236" as="targetPoint" />
          </mxGeometry>
        </mxCell>
        <mxCell id="0mGcMl_5vktNwuxS22v_-66" value="" style="endArrow=none;html=1;rounded=0;startFill=0;" parent="1" edge="1">
          <mxGeometry width="50" height="50" relative="1" as="geometry">
            <mxPoint x="301.5" y="261" as="sourcePoint" />
            <mxPoint x="342.5" y="261" as="targetPoint" />
          </mxGeometry>
        </mxCell>
        <mxCell id="0mGcMl_5vktNwuxS22v_-67" value="+1" style="rounded=1;whiteSpace=wrap;html=1;arcSize=21;" parent="1" vertex="1">
          <mxGeometry x="342.5" y="202.25" width="40" height="20" as="geometry" />
        </mxCell>
        <mxCell id="0mGcMl_5vktNwuxS22v_-68" value="+3" style="rounded=1;whiteSpace=wrap;html=1;arcSize=21;" parent="1" vertex="1">
          <mxGeometry x="342.5" y="226" width="40" height="20" as="geometry" />
        </mxCell>
        <mxCell id="0mGcMl_5vktNwuxS22v_-69" value="+5" style="rounded=1;whiteSpace=wrap;html=1;arcSize=21;" parent="1" vertex="1">
          <mxGeometry x="342.5" y="250" width="40" height="20" as="geometry" />
        </mxCell>
        <mxCell id="0mGcMl_5vktNwuxS22v_-70" value="MUX" style="shape=trapezoid;perimeter=trapezoidPerimeter;whiteSpace=wrap;html=1;fixedSize=1;rotation=-90;size=14;flipH=0;flipV=1;" parent="1" vertex="1">
          <mxGeometry x="346.64" y="172.06" width="159.9" height="29" as="geometry" />
        </mxCell>
        <mxCell id="0mGcMl_5vktNwuxS22v_-71" value="" style="endArrow=classic;html=1;rounded=0;startFill=0;endFill=1;" parent="1" edge="1">
          <mxGeometry width="50" height="50" relative="1" as="geometry">
            <mxPoint x="382.5" y="235.86" as="sourcePoint" />
            <mxPoint x="412.5" y="236" as="targetPoint" />
          </mxGeometry>
        </mxCell>
        <mxCell id="0mGcMl_5vktNwuxS22v_-72" value="" style="endArrow=classic;html=1;rounded=0;startFill=0;endFill=1;" parent="1" edge="1">
          <mxGeometry width="50" height="50" relative="1" as="geometry">
            <mxPoint x="382.5" y="259.86" as="sourcePoint" />
            <mxPoint x="412.5" y="260" as="targetPoint" />
          </mxGeometry>
        </mxCell>
        <mxCell id="0mGcMl_5vktNwuxS22v_-73" value="" style="endArrow=classic;html=1;rounded=0;startFill=0;endFill=1;" parent="1" edge="1">
          <mxGeometry width="50" height="50" relative="1" as="geometry">
            <mxPoint x="382.5" y="212.11" as="sourcePoint" />
            <mxPoint x="412.5" y="212.25" as="targetPoint" />
          </mxGeometry>
        </mxCell>
        <mxCell id="0mGcMl_5vktNwuxS22v_-74" value="" style="endArrow=none;html=1;rounded=0;" parent="1" edge="1">
          <mxGeometry width="50" height="50" relative="1" as="geometry">
            <mxPoint x="268" y="235.95" as="sourcePoint" />
            <mxPoint x="301.5" y="235.95" as="targetPoint" />
          </mxGeometry>
        </mxCell>
        <mxCell id="0mGcMl_5vktNwuxS22v_-79" value="&lt;font style=&quot;font-size: 10px;&quot;&gt;b_pc_choice&lt;/font&gt;" style="text;html=1;align=center;verticalAlign=middle;resizable=0;points=[];autosize=1;strokeColor=none;fillColor=none;rotation=90;" parent="1" vertex="1">
          <mxGeometry x="399" y="60" width="80" height="30" as="geometry" />
        </mxCell>
        <mxCell id="0mGcMl_5vktNwuxS22v_-81" value="" style="endArrow=none;html=1;rounded=0;" parent="1" edge="1">
          <mxGeometry width="50" height="50" relative="1" as="geometry">
            <mxPoint x="267.7" y="293.29" as="sourcePoint" />
            <mxPoint x="267.7" y="236" as="targetPoint" />
          </mxGeometry>
        </mxCell>
        <mxCell id="0mGcMl_5vktNwuxS22v_-88" value="" style="endArrow=classic;html=1;rounded=0;dashed=1;dashPattern=8 8;" parent="1" edge="1">
          <mxGeometry width="50" height="50" relative="1" as="geometry">
            <mxPoint x="428" y="44" as="sourcePoint" />
            <mxPoint x="428" y="113" as="targetPoint" />
          </mxGeometry>
        </mxCell>
        <mxCell id="0mGcMl_5vktNwuxS22v_-89" value="" style="endArrow=classic;html=1;rounded=0;fillColor=#dae8fc;strokeColor=#6c8ebf;" parent="1" edge="1">
          <mxGeometry width="50" height="50" relative="1" as="geometry">
            <mxPoint x="331.5" y="442.25" as="sourcePoint" />
            <mxPoint x="331.5" y="476" as="targetPoint" />
          </mxGeometry>
        </mxCell>
        <mxCell id="0mGcMl_5vktNwuxS22v_-90" value="&lt;font style=&quot;font-size: 10px;&quot;&gt;l_cr&lt;/font&gt;" style="text;html=1;align=center;verticalAlign=middle;resizable=0;points=[];autosize=1;strokeColor=none;fillColor=none;rotation=-90;flipH=1;" parent="1" vertex="1">
          <mxGeometry x="302.5" y="441.25" width="40" height="30" as="geometry" />
        </mxCell>
        <mxCell id="0mGcMl_5vktNwuxS22v_-97" value="" style="endArrow=none;html=1;rounded=0;" parent="1" edge="1">
          <mxGeometry width="50" height="50" relative="1" as="geometry">
            <mxPoint x="441" y="219.65" as="sourcePoint" />
            <mxPoint x="480" y="220" as="targetPoint" />
          </mxGeometry>
        </mxCell>
        <mxCell id="0mGcMl_5vktNwuxS22v_-98" value="" style="endArrow=none;html=1;rounded=0;" parent="1" edge="1">
          <mxGeometry width="50" height="50" relative="1" as="geometry">
            <mxPoint x="480" y="293.5" as="sourcePoint" />
            <mxPoint x="480" y="219.5" as="targetPoint" />
          </mxGeometry>
        </mxCell>
        <mxCell id="0mGcMl_5vktNwuxS22v_-99" value="" style="endArrow=classic;html=1;rounded=0;" parent="1" edge="1">
          <mxGeometry width="50" height="50" relative="1" as="geometry">
            <mxPoint x="480" y="293" as="sourcePoint" />
            <mxPoint x="450" y="292.92" as="targetPoint" />
          </mxGeometry>
        </mxCell>
        <mxCell id="0mGcMl_5vktNwuxS22v_-100" value="&lt;font style=&quot;font-size: 10px;&quot;&gt;b_pc_new&lt;/font&gt;" style="text;html=1;align=center;verticalAlign=middle;resizable=0;points=[];autosize=1;strokeColor=none;fillColor=none;rotation=90;flipH=1;" parent="1" vertex="1">
          <mxGeometry x="456" y="241" width="70" height="30" as="geometry" />
        </mxCell>
        <mxCell id="0mGcMl_5vktNwuxS22v_-101" value="[1..4]" style="rounded=1;whiteSpace=wrap;html=1;arcSize=21;" parent="1" vertex="1">
          <mxGeometry x="535" y="427" width="40" height="20" as="geometry" />
        </mxCell>
        <mxCell id="0mGcMl_5vktNwuxS22v_-102" value="a+b[1..2]" style="triangle;whiteSpace=wrap;html=1;align=left;spacingLeft=4;" parent="1" vertex="1">
          <mxGeometry x="535" y="476" width="70" height="80" as="geometry" />
        </mxCell>
        <mxCell id="0mGcMl_5vktNwuxS22v_-103" value="" style="endArrow=none;html=1;rounded=0;" parent="1" edge="1">
          <mxGeometry width="50" height="50" relative="1" as="geometry">
            <mxPoint x="482" y="487.25" as="sourcePoint" />
            <mxPoint x="482" y="437.25" as="targetPoint" />
          </mxGeometry>
        </mxCell>
        <mxCell id="0mGcMl_5vktNwuxS22v_-104" value="" style="endArrow=none;html=1;rounded=0;" parent="1" edge="1">
          <mxGeometry width="50" height="50" relative="1" as="geometry">
            <mxPoint x="482" y="437.5" as="sourcePoint" />
            <mxPoint x="535" y="437.5" as="targetPoint" />
          </mxGeometry>
        </mxCell>
        <mxCell id="0mGcMl_5vktNwuxS22v_-105" value="" style="endArrow=none;html=1;rounded=0;" parent="1" edge="1">
          <mxGeometry width="50" height="50" relative="1" as="geometry">
            <mxPoint x="482" y="487" as="sourcePoint" />
            <mxPoint x="535" y="487" as="targetPoint" />
          </mxGeometry>
        </mxCell>
        <mxCell id="0mGcMl_5vktNwuxS22v_-106" value="a" style="text;html=1;align=center;verticalAlign=middle;resizable=0;points=[];autosize=1;strokeColor=none;fillColor=none;rotation=-90;" parent="1" vertex="1">
          <mxGeometry x="528" y="527" width="30" height="30" as="geometry" />
        </mxCell>
        <mxCell id="0mGcMl_5vktNwuxS22v_-107" value="b" style="text;html=1;align=center;verticalAlign=middle;resizable=0;points=[];autosize=1;strokeColor=none;fillColor=none;rotation=-90;" parent="1" vertex="1">
          <mxGeometry x="528" y="475" width="30" height="30" as="geometry" />
        </mxCell>
        <mxCell id="0mGcMl_5vktNwuxS22v_-108" value="" style="endArrow=classic;html=1;rounded=0;dashed=1;dashPattern=8 8;" parent="1" edge="1">
          <mxGeometry width="50" height="50" relative="1" as="geometry">
            <mxPoint x="465" y="541.64" as="sourcePoint" />
            <mxPoint x="535" y="541.64" as="targetPoint" />
          </mxGeometry>
        </mxCell>
        <mxCell id="0mGcMl_5vktNwuxS22v_-109" value="b_pc" style="text;html=1;align=center;verticalAlign=middle;resizable=0;points=[];autosize=1;strokeColor=none;fillColor=none;" parent="1" vertex="1">
          <mxGeometry x="471" y="517" width="50" height="30" as="geometry" />
        </mxCell>
        <mxCell id="0mGcMl_5vktNwuxS22v_-110" value="MUX" style="shape=trapezoid;perimeter=trapezoidPerimeter;whiteSpace=wrap;html=1;fixedSize=1;rotation=-90;size=14;flipH=0;flipV=1;" parent="1" vertex="1">
          <mxGeometry x="587" y="461" width="115" height="29" as="geometry" />
        </mxCell>
        <mxCell id="0mGcMl_5vktNwuxS22v_-111" value="" style="endArrow=classic;html=1;rounded=0;" parent="1" edge="1">
          <mxGeometry width="50" height="50" relative="1" as="geometry">
            <mxPoint x="605" y="516" as="sourcePoint" />
            <mxPoint x="630" y="516" as="targetPoint" />
          </mxGeometry>
        </mxCell>
        <mxCell id="0mGcMl_5vktNwuxS22v_-112" value="" style="endArrow=classic;html=1;rounded=0;" parent="1" edge="1">
          <mxGeometry width="50" height="50" relative="1" as="geometry">
            <mxPoint x="575" y="436.86" as="sourcePoint" />
            <mxPoint x="630" y="437" as="targetPoint" />
          </mxGeometry>
        </mxCell>
        <mxCell id="0mGcMl_5vktNwuxS22v_-113" value="" style="endArrow=classic;html=1;rounded=0;dashed=1;dashPattern=8 8;" parent="1" edge="1">
          <mxGeometry width="50" height="50" relative="1" as="geometry">
            <mxPoint x="660" y="479.64" as="sourcePoint" />
            <mxPoint x="730" y="479.64" as="targetPoint" />
          </mxGeometry>
        </mxCell>
        <mxCell id="0mGcMl_5vktNwuxS22v_-114" value="b_cr_arg" style="text;html=1;align=center;verticalAlign=middle;resizable=0;points=[];autosize=1;strokeColor=none;fillColor=none;" parent="1" vertex="1">
          <mxGeometry x="656" y="455" width="70" height="30" as="geometry" />
        </mxCell>
        <mxCell id="0mGcMl_5vktNwuxS22v_-115" value="" style="endArrow=classic;html=1;rounded=0;dashed=1;dashPattern=8 8;" parent="1" edge="1">
          <mxGeometry width="50" height="50" relative="1" as="geometry">
            <mxPoint x="341" y="163.64" as="sourcePoint" />
            <mxPoint x="411" y="163.64" as="targetPoint" />
          </mxGeometry>
        </mxCell>
        <mxCell id="0mGcMl_5vktNwuxS22v_-116" value="b_cr_arg" style="text;html=1;align=center;verticalAlign=middle;resizable=0;points=[];autosize=1;strokeColor=none;fillColor=none;" parent="1" vertex="1">
          <mxGeometry x="334" y="135" width="70" height="30" as="geometry" />
        </mxCell>
        <mxCell id="0mGcMl_5vktNwuxS22v_-117" value="RA" style="rounded=0;whiteSpace=wrap;html=1;rotation=0;" parent="1" vertex="1">
          <mxGeometry x="142" y="173.44" width="150" height="30" as="geometry" />
        </mxCell>
        <mxCell id="0mGcMl_5vktNwuxS22v_-118" value="" style="endArrow=classic;html=1;rounded=0;startFill=0;endFill=1;" parent="1" edge="1">
          <mxGeometry width="50" height="50" relative="1" as="geometry">
            <mxPoint x="292" y="188.24" as="sourcePoint" />
            <mxPoint x="412" y="188" as="targetPoint" />
          </mxGeometry>
        </mxCell>
        <mxCell id="0mGcMl_5vktNwuxS22v_-119" value="" style="endArrow=none;html=1;rounded=0;" parent="1" edge="1">
          <mxGeometry width="50" height="50" relative="1" as="geometry">
            <mxPoint x="268" y="235.95" as="sourcePoint" />
            <mxPoint x="210" y="235.95" as="targetPoint" />
          </mxGeometry>
        </mxCell>
        <mxCell id="0mGcMl_5vktNwuxS22v_-120" value="" style="endArrow=classic;html=1;rounded=0;" parent="1" edge="1">
          <mxGeometry width="50" height="50" relative="1" as="geometry">
            <mxPoint x="210" y="236.5" as="sourcePoint" />
            <mxPoint x="210" y="203.44" as="targetPoint" />
          </mxGeometry>
        </mxCell>
        <mxCell id="0mGcMl_5vktNwuxS22v_-121" value="" style="endArrow=classic;html=1;rounded=0;dashed=1;dashPattern=8 8;" parent="1" edge="1">
          <mxGeometry width="50" height="50" relative="1" as="geometry">
            <mxPoint x="210" y="235.95" as="sourcePoint" />
            <mxPoint x="162" y="235.95" as="targetPoint" />
          </mxGeometry>
        </mxCell>
        <mxCell id="0mGcMl_5vktNwuxS22v_-122" value="" style="endArrow=classic;html=1;rounded=0;fillColor=#dae8fc;strokeColor=#6c8ebf;dashed=1;dashPattern=8 8;" parent="1" edge="1">
          <mxGeometry width="50" height="50" relative="1" as="geometry">
            <mxPoint x="166" y="139" as="sourcePoint" />
            <mxPoint x="166" y="172.75" as="targetPoint" />
          </mxGeometry>
        </mxCell>
        <mxCell id="0mGcMl_5vktNwuxS22v_-123" value="&lt;font style=&quot;font-size: 10px;&quot;&gt;l_ra&lt;/font&gt;" style="text;html=1;align=center;verticalAlign=middle;resizable=0;points=[];autosize=1;strokeColor=none;fillColor=none;rotation=-90;flipH=1;" parent="1" vertex="1">
          <mxGeometry x="135" y="138" width="40" height="30" as="geometry" />
        </mxCell>
        <mxCell id="0mGcMl_5vktNwuxS22v_-124" value="b_ra" style="text;html=1;align=center;verticalAlign=middle;resizable=0;points=[];autosize=1;strokeColor=none;fillColor=none;" parent="1" vertex="1">
          <mxGeometry x="334" y="164" width="50" height="30" as="geometry" />
        </mxCell>
        <mxCell id="0mGcMl_5vktNwuxS22v_-125" value="&lt;font style=&quot;font-size: 10px;&quot;&gt;b_cr_choice&lt;/font&gt;" style="text;html=1;align=center;verticalAlign=middle;resizable=0;points=[];autosize=1;strokeColor=none;fillColor=none;rotation=90;" parent="1" vertex="1">
          <mxGeometry x="617" y="373" width="80" height="30" as="geometry" />
        </mxCell>
        <mxCell id="0mGcMl_5vktNwuxS22v_-126" value="" style="endArrow=classic;html=1;rounded=0;dashed=1;dashPattern=8 8;" parent="1" edge="1">
          <mxGeometry width="50" height="50" relative="1" as="geometry">
            <mxPoint x="646" y="357" as="sourcePoint" />
            <mxPoint x="646" y="426" as="targetPoint" />
          </mxGeometry>
        </mxCell>
        <mxCell id="xcxWrS9geXVKHS9n62oK-1" value="" style="endArrow=classic;html=1;rounded=0;strokeWidth=4;dashed=1;startArrow=classic;startFill=1;" parent="1" edge="1">
          <mxGeometry width="50" height="50" relative="1" as="geometry">
            <mxPoint x="450" y="349.71000000000004" as="sourcePoint" />
            <mxPoint x="550" y="350" as="targetPoint" />
          </mxGeometry>
        </mxCell>
        <mxCell id="xcxWrS9geXVKHS9n62oK-2" value="to datapath" style="text;html=1;align=center;verticalAlign=middle;resizable=0;points=[];autosize=1;strokeColor=none;fillColor=none;" parent="1" vertex="1">
          <mxGeometry x="458" y="320" width="80" height="30" as="geometry" />
        </mxCell>
        <mxCell id="xcxWrS9geXVKHS9n62oK-4" value="" style="endArrow=classic;html=1;rounded=0;fillColor=#dae8fc;strokeColor=#6c8ebf;dashed=1;dashPattern=8 8;" parent="1" edge="1">
          <mxGeometry width="50" height="50" relative="1" as="geometry">
            <mxPoint x="451" y="419" as="sourcePoint" />
            <mxPoint x="530" y="419" as="targetPoint" />
          </mxGeometry>
        </mxCell>
        <mxCell id="xcxWrS9geXVKHS9n62oK-5" value="&lt;font style=&quot;font-size: 10px;&quot;&gt;l_ra&lt;/font&gt;" style="text;html=1;align=center;verticalAlign=middle;resizable=0;points=[];autosize=1;strokeColor=none;fillColor=none;rotation=0;flipH=1;" parent="1" vertex="1">
          <mxGeometry x="467" y="395" width="40" height="30" as="geometry" />
        </mxCell>
        <mxCell id="xcxWrS9geXVKHS9n62oK-6" value="&lt;font style=&quot;font-size: 10px;&quot;&gt;b_cr_choice&lt;/font&gt;" style="text;html=1;align=center;verticalAlign=middle;resizable=0;points=[];autosize=1;strokeColor=none;fillColor=none;rotation=0;" parent="1" vertex="1">
          <mxGeometry x="447" y="375" width="80" height="30" as="geometry" />
        </mxCell>
        <mxCell id="xcxWrS9geXVKHS9n62oK-7" value="" style="endArrow=classic;html=1;rounded=0;dashed=1;dashPattern=8 8;" parent="1" edge="1">
          <mxGeometry width="50" height="50" relative="1" as="geometry">
            <mxPoint x="451" y="400" as="sourcePoint" />
            <mxPoint x="530" y="400" as="targetPoint" />
          </mxGeometry>
        </mxCell>
        <mxCell id="xcxWrS9geXVKHS9n62oK-8" value="&lt;font style=&quot;font-size: 10px;&quot;&gt;b_pc_choice&lt;/font&gt;" style="text;html=1;align=center;verticalAlign=middle;resizable=0;points=[];autosize=1;strokeColor=none;fillColor=none;rotation=0;" parent="1" vertex="1">
          <mxGeometry x="447" y="356" width="80" height="30" as="geometry" />
        </mxCell>
        <mxCell id="xcxWrS9geXVKHS9n62oK-9" value="" style="endArrow=classic;html=1;rounded=0;dashed=1;dashPattern=8 8;" parent="1" edge="1">
          <mxGeometry width="50" height="50" relative="1" as="geometry">
            <mxPoint x="451" y="381" as="sourcePoint" />
            <mxPoint x="530" y="381" as="targetPoint" />
          </mxGeometry>
        </mxCell>
        <mxCell id="wyACuVAmT-73w4PSkijN-3" value="" style="endArrow=classic;html=1;rounded=0;dashed=1;dashPattern=8 8;" parent="1" edge="1">
          <mxGeometry width="50" height="50" relative="1" as="geometry">
            <mxPoint x="300" y="366" as="sourcePoint" />
            <mxPoint x="246" y="366" as="targetPoint" />
          </mxGeometry>
        </mxCell>
        <mxCell id="wyACuVAmT-73w4PSkijN-4" value="&lt;font style=&quot;font-size: 10px;&quot;&gt;b_cv_nxt&lt;/font&gt;" style="text;html=1;align=center;verticalAlign=middle;resizable=0;points=[];autosize=1;strokeColor=none;fillColor=none;rotation=0;flipH=1;" parent="1" vertex="1">
          <mxGeometry x="245.5" y="342" width="60" height="30" as="geometry" />
        </mxCell>
        <mxCell id="wyACuVAmT-73w4PSkijN-5" value="" style="endArrow=classic;html=1;rounded=0;dashed=1;dashPattern=8 8;" parent="1" edge="1">
          <mxGeometry width="50" height="50" relative="1" as="geometry">
            <mxPoint x="246" y="389" as="sourcePoint" />
            <mxPoint x="300" y="389" as="targetPoint" />
          </mxGeometry>
        </mxCell>
        <mxCell id="wyACuVAmT-73w4PSkijN-6" value="&lt;font style=&quot;font-size: 10px;&quot;&gt;b_cv_state&lt;/font&gt;" style="text;html=1;align=center;verticalAlign=middle;resizable=0;points=[];autosize=1;strokeColor=none;fillColor=none;rotation=0;flipH=1;" parent="1" vertex="1">
          <mxGeometry x="234" y="364" width="70" height="30" as="geometry" />
        </mxCell>
        <mxCell id="J_T8FzdjnSKladyWESqe-1" value="" style="endArrow=classic;html=1;rounded=0;" edge="1" parent="1">
          <mxGeometry width="50" height="50" relative="1" as="geometry">
            <mxPoint x="320" y="134" as="sourcePoint" />
            <mxPoint x="413" y="133.64" as="targetPoint" />
          </mxGeometry>
        </mxCell>
        <mxCell id="J_T8FzdjnSKladyWESqe-4" value="0x00000005" style="shape=parallelogram;perimeter=parallelogramPerimeter;whiteSpace=wrap;html=1;fixedSize=1;" vertex="1" parent="1">
          <mxGeometry x="210" y="113" width="120" height="40" as="geometry" />
        </mxCell>
        <mxCell id="J_T8FzdjnSKladyWESqe-5" value="&lt;font style=&quot;font-size: 10px;&quot;&gt;b_int_addr&lt;/font&gt;" style="text;html=1;align=center;verticalAlign=middle;resizable=0;points=[];autosize=1;strokeColor=none;fillColor=none;rotation=0;" vertex="1" parent="1">
          <mxGeometry x="334" y="105" width="70" height="30" as="geometry" />
        </mxCell>
      </root>
    </mxGraphModel>
  </diagram>
</mxfile>
